<?xml version="1.0" encoding="UTF-8"?>
<svg id="_レイヤー_1" data-name="レイヤー 1" xmlns="http://www.w3.org/2000/svg" viewBox="0 0 1000 1000">
  <defs>
    <style>
      .cls-1 {
        fill: #fff;
      }
    </style>
  </defs>
  <path class="cls-1" d="M497.95,772.69c-11.95-109.45-75.09-260.92-162.63-272.27,19.57-18.25,46.12-27.04,72.72-24.08,21.54-41.8,58.92-57.25,101.95-53.17,44.94,4.26,91.88,45.56,120.03,103.81,21.5,44.51,46.99,72.27,75.14,86.93,18.9,9.85,42.02,6.18,56.94-9.03l152.64-155.52c14.01-14.28,19.06-35.62,12.87-54.95-6.19-19.32-22.32-33.44-41.88-36.46l-234.15-35.62-104.77-222.31c-8.64-18.48-26.89-30.25-46.93-30.25s-38.13,11.76-46.93,30.25l-104.77,222.31-233.99,35.62c-19.55,3.02-35.85,17.14-41.88,36.46-6.03,19.32-1.14,40.66,12.87,54.95l169.79,173.24-40.08,244.83c-3.26,20.16,4.89,40.66,21.02,52.6,16.13,11.93,37.48,13.44,55.08,3.86l180.42-100.12c18.3-10.16,28.81-30.28,26.54-51.09Z"/>
</svg>