<?xml version="1.0" encoding="UTF-8"?>
<svg id="_レイヤー_2" data-name="レイヤー 2" xmlns="http://www.w3.org/2000/svg" xmlns:xlink="http://www.w3.org/1999/xlink" viewBox="0 0 768 767.95">
  <defs>
    <style>
      .cls-1 {
        fill: url(#_名称未設定グラデーション_5);
      }
    </style>
    <linearGradient id="_名称未設定グラデーション_5" data-name="名称未設定グラデーション 5" x1="384" y1="0" x2="384" y2="767.95" gradientUnits="userSpaceOnUse">
      <stop offset="0" stop-color="#595757"/>
      <stop offset="1" stop-color="#231815"/>
    </linearGradient>
  </defs>
  <g id="_レイヤー_1-2" data-name="レイヤー 1">
    <path class="cls-1" d="M382.17,627.4c-10.67-97.69-67.03-232.89-145.15-243.02,17.47-16.29,41.17-24.14,64.9-21.49,19.23-37.31,52.59-51.1,91-47.45,40.11,3.8,82.01,40.67,107.14,92.66,19.19,39.72,41.95,64.51,67.06,77.59,16.87,8.79,37.5,5.52,50.83-8.06l136.24-138.81c12.51-12.75,17.02-31.8,11.49-49.04-5.53-17.25-19.93-29.85-37.38-32.55l-209-31.8L425.78,27c-7.71-16.5-24-27-41.89-27s-34.03,10.5-41.89,27l-93.52,198.43-208.85,31.8c-17.45,2.7-32,15.3-37.38,32.55-5.38,17.25-1.02,36.3,11.49,49.04l151.55,154.63-35.78,218.53c-2.91,18,4.36,36.3,18.76,46.94,14.4,10.65,33.45,12,49.16,3.45l161.04-89.36c16.34-9.07,25.71-27.03,23.68-45.6Z"/>
  </g>
</svg>